<svg xmlns="http://www.w3.org/2000/svg" viewBox="0 0 125.03 125.03"><defs><style>.cls-1{fill:#3f47f5;}</style></defs><title>Asset 3</title><g id="Layer_2" data-name="Layer 2"><g id="Layer_1-2" data-name="Layer 1"><path class="cls-1" d="M2.83,53.38H50.55a2.82,2.82,0,0,0,2.83-2.82V2.83A2.83,2.83,0,0,1,56.21,0H68.82a2.83,2.83,0,0,1,2.83,2.83V50.56a2.82,2.82,0,0,0,2.83,2.82H122.2A2.83,2.83,0,0,1,125,56.21V68.82a2.83,2.83,0,0,1-2.83,2.83H74.48a2.83,2.83,0,0,0-2.83,2.83V122.2A2.83,2.83,0,0,1,68.82,125H56.21a2.83,2.83,0,0,1-2.83-2.83V74.48a2.83,2.83,0,0,0-2.83-2.83H2.83A2.83,2.83,0,0,1,0,68.82V56.21A2.83,2.83,0,0,1,2.83,53.38Z"/></g></g></svg>