<svg xmlns="http://www.w3.org/2000/svg" viewBox="0 0 155.59 115"><defs><style>.cls-1{fill:#3f47f5;}</style></defs><title>bluecloud</title><g id="Layer_2" data-name="Layer 2"><g id="Layer_1-2" data-name="Layer 1"><path class="cls-1" d="M77.8,0A46.89,46.89,0,0,0,31.5,38.11,38.79,38.79,0,0,0,38.9,115h82.87a33.73,33.73,0,0,0,3.06-67.33A46.84,46.84,0,0,0,77.8,0Zm0,10.15A36.83,36.83,0,0,1,104.06,21a37.21,37.21,0,0,1,10.68,30.81,5.08,5.08,0,0,0,4.4,5.67,4.3,4.3,0,0,0,.62,0h2a23.68,23.68,0,0,1,0,47.36H38.9a28.76,28.76,0,0,1-2.64-57.4A5.08,5.08,0,0,0,40.8,43a37.14,37.14,0,0,1,37-32.87ZM67.36,90.25A5,5,0,0,1,64,88.92L46.56,72.75a5,5,0,1,1,6.81-7.32l13.3,12.35,24.44-33a5,5,0,1,1,8,5.95L71.38,88.23a5,5,0,0,1-3.55,2A3.7,3.7,0,0,1,67.36,90.25Z"/></g></g></svg>