<svg xmlns="http://www.w3.org/2000/svg" xmlns:xlink="http://www.w3.org/1999/xlink" viewBox="0 0 354 354"><defs><style>.cls-1{fill:none;}.cls-2{fill:#d9dafd;}.cls-3{clip-path:url(#clip-path);}.cls-4{fill:#3f47f5;}</style><clipPath id="clip-path"><rect class="cls-1" x="4.95" y="26.21" width="348" height="267.72"/></clipPath></defs><title>circuit</title><g id="Layer_2" data-name="Layer 2"><g id="Layer_1-2" data-name="Layer 1"><rect class="cls-2" x="4.95" y="26.21" width="348" height="267.72"/><g class="cls-3"><path class="cls-4" d="M51.35,260.84a5.82,5.82,0,1,1,0,2.33H0v-2.33Zm186.32,55.89a5.82,5.82,0,1,1,0,2.33H95.49v-2.33ZM305,263.17a5.82,5.82,0,1,1,0-2.33h49v2.33Zm0,18.63a5.82,5.82,0,1,1,0-2.33h49v2.33Zm7.22-132.75a5.82,5.82,0,1,1,0,2.33H211.81a5.82,5.82,0,1,1,0-2.33ZM14.09,93.16a5.82,5.82,0,1,1,0,2.33H0V93.16Zm216.36,39.59a5.82,5.82,0,1,1,0-2.33H330.82a5.82,5.82,0,1,1,0,2.33Zm70-118.66a5.82,5.82,0,1,1-2.33,0V0h2.33ZM225.9,256.3a5.82,5.82,0,1,1-2.32,0V193.18a5.83,5.83,0,1,1,2.32,0ZM281.8,25.5V93.16H354v2.33H279.47v-70a5.82,5.82,0,1,1,2.33,0Zm18.63,18.63v30.4H354v2.32H298.1V44.13a5.82,5.82,0,1,1,2.33,0Zm-149,111.79v86.29H170V256.3a5.82,5.82,0,1,1-2.33,0V244.54H149.05V155.92a5.82,5.82,0,1,1,2.33,0Zm-6.87-25.5a5.82,5.82,0,1,1,0,2.33H132.75v55.89H100a5.82,5.82,0,1,1,0-2.33h30.39V130.42ZM137.29,281.8a5.82,5.82,0,1,1,0-2.33h67.65V193.18a5.82,5.82,0,1,1,2.33,0V281.8Zm-18.63-74.53a5.82,5.82,0,1,1,0-2.33h14.09v55.9h11.76a5.82,5.82,0,1,1,0,2.33H130.42v-55.9ZM76.85,330.82a5.82,5.82,0,1,1-2.32,0V319.06H58.22V354H55.89V316.73h21ZM274.93,204.94a5.82,5.82,0,1,1,0,2.33H263.17V316.73h55.89V354h-2.33V319.06H260.84V204.94ZM305,170a5.82,5.82,0,1,1,0-2.33h14.09V219a5.82,5.82,0,1,1-2.33,0V170ZM230.45,281.8a5.82,5.82,0,1,1,0-2.33h11.76V186.31h18.63V170h-49a5.82,5.82,0,1,1,0-2.33h51.36v21H244.54V281.8ZM330.82,37.26a5.82,5.82,0,1,1,0,2.33H316.73V0h2.33V37.26Zm-216.7,81.4V170H62.76a5.82,5.82,0,1,1,0-2.33h49v-49a5.82,5.82,0,1,1,2.33,0ZM62.76,39.59a5.82,5.82,0,1,1,0-2.33h30.4V0h2.33V39.59Zm70,4.54V76.85H95.49v74.53H81.4a5.82,5.82,0,1,1,0-2.33H93.16V74.53h37.26V44.13a5.82,5.82,0,1,1,2.33,0ZM118.66,95.49a5.82,5.82,0,1,1,0-2.33h30.39v-49a5.82,5.82,0,1,1,2.33,0V95.49ZM137.29,21a5.82,5.82,0,1,1,0-2.33H170V70a5.82,5.82,0,1,1-2.33,0V21Zm119,314.4a5.82,5.82,0,1,1,0,2.33H114.12V354h-2.33V335.36Zm25.5-160.81v11.76h18.63V225.9H281.8v72.2h55.89V354h-2.33V300.43H279.47V223.58H298.1V188.64H279.47V174.55a5.82,5.82,0,1,1,2.33,0ZM62.76,21a5.82,5.82,0,1,1,0-2.33H74.53V2.33H55.89V0h21V21ZM193.18,58.22a5.82,5.82,0,1,1,0-2.33h30.4V0H281.8V2.33H225.9V58.22ZM137.29,2.33A5.82,5.82,0,1,1,125.88,0h2.41a3.49,3.49,0,0,0,6.59,2.32,3.55,3.55,0,0,0,0-2.32h72.39V39.59h-21V25.5a5.82,5.82,0,1,1,2.33,0V37.26h16.3V2.33Zm0,111.79a5.82,5.82,0,1,1,0-2.33h22.24l37.26-37.26h45.42v-49a5.82,5.82,0,1,1,2.33,0V76.85H197.76L160.5,114.12ZM170,219a5.82,5.82,0,1,1-2.33,0V129.94l36.79-36.78h56.37V25.5a5.82,5.82,0,1,1,2.33,0v70H205.42L170,130.9Zm18.63,37.27a5.82,5.82,0,1,1-2.33,0V140.42L215,111.79h134.5a5.82,5.82,0,0,1,4.55-4.54v2.41a3.49,3.49,0,0,0,0,6.59v2.41a5.85,5.85,0,0,1-4.55-4.54H215.9l-27.26,27.26ZM21,181.77a5.82,5.82,0,1,1-2.33,0v-4.09l55.9-55.89V55.89h37.26V0h2.33V58.22H76.85v64.53L21,178.64Zm37.26-119v50.67L2.33,169.32v72.89H32.72a5.82,5.82,0,1,1,0,2.33H0V168.37l55.89-55.9V62.76a5.82,5.82,0,1,1,2.33,0ZM39.59,81.4v22.71L0,143.71v-3.29l37.26-37.26V81.4a5.82,5.82,0,1,1,2.33,0ZM14.09,37.26a5.82,5.82,0,1,1,0,2.33H11l-11,11V47.28l10-10Zm309.51,21a5.82,5.82,0,1,1,0-2.33h21.77L354,47.27v3.28l-7.68,7.67ZM305,244.54a5.82,5.82,0,1,1,0-2.33h30.39V159.05L354,140.42v3.29L337.69,160v84.53ZM62.76,281.8a5.82,5.82,0,1,1,0-2.33H74.53V253.16L47.27,225.9H25.5a5.82,5.82,0,1,1,0-2.32H48.22l28.63,28.63V281.8Zm174.91,16.3a5.82,5.82,0,1,1,0,2.33H111.79V234.52L65.91,188.64H44.13a5.82,5.82,0,1,1,0-2.33H66.84l47.28,47.28V298.1ZM62.76,300.43a5.82,5.82,0,1,1,0-2.33h30.4V243.85L56.58,207.27H25.5a5.82,5.82,0,1,1,0-2.33h32l37.95,37.95v57.54ZM39.59,46.35v1.87L11,76.85H0V74.53H10L37.26,47.27V0h2.33ZM2.33,349.45A5.83,5.83,0,0,1,6.87,354H4.46A3.5,3.5,0,0,0,0,351.86H0V298.1H21V354H18.63V300.43H2.33Zm37.26-68.82V354H37.26V281.8H0v-2.33H39.59ZM19.8,21H0V18.63H18.63V0H21V21Zm317.89-2.33H354V21H335.36V0h2.33Zm-37.26,317.9V354H298.1V337.69H281.8V354h-2.33V335.36h21ZM0,107.25a5.84,5.84,0,0,1,6.87,4.59A5.24,5.24,0,0,1,7,113a5.83,5.83,0,0,1-5.82,5.83A5.66,5.66,0,0,1,0,118.66v-2.41a3.49,3.49,0,0,0,2.32-6.59,3.42,3.42,0,0,0-2.32,0ZM93.16,316.73h2.33V354H93.16ZM137.29,354h-2.41a3.49,3.49,0,0,0-6.59,0h-2.41a5.82,5.82,0,0,1,11.41,0ZM6.87,0a5.84,5.84,0,0,1-4.6,6.87A5.78,5.78,0,0,1,0,6.87V4.46A3.5,3.5,0,0,0,4.46,2.33,3.45,3.45,0,0,0,4.46,0ZM349.45,0h2.41A3.5,3.5,0,0,0,354,4.46h0V6.87A5.82,5.82,0,0,1,349.45,0ZM354,349.45v2.41a3.54,3.54,0,0,0-2.14,2.14h-2.41A5.84,5.84,0,0,1,354,349.45Zm-241-233a3.5,3.5,0,1,0-3.49-3.5A3.5,3.5,0,0,0,113,116.45Zm0-18.64a3.49,3.49,0,1,0-3.49-3.49A3.5,3.5,0,0,0,113,97.81Zm18.63,18.64a3.5,3.5,0,1,0-3.49-3.5A3.5,3.5,0,0,0,131.58,116.45Zm18.64,18.63a3.5,3.5,0,1,0-3.5-3.5A3.5,3.5,0,0,0,150.22,135.08Zm0,18.63a3.5,3.5,0,1,0-3.5-3.49A3.5,3.5,0,0,0,150.22,153.71ZM94.32,191a3.5,3.5,0,1,0-3.49-3.49A3.49,3.49,0,0,0,94.32,191ZM113,209.6a3.49,3.49,0,1,0-3.49-3.49A3.5,3.5,0,0,0,113,209.6Zm37.27,55.9a3.5,3.5,0,1,0-3.5-3.5A3.5,3.5,0,0,0,150.22,265.5Zm-18.64,18.63a3.5,3.5,0,1,0-3.49-3.5A3.5,3.5,0,0,0,131.58,284.13Zm37.27-18.63a3.5,3.5,0,1,0-3.5-3.5A3.5,3.5,0,0,0,168.85,265.5Zm0-37.27a3.49,3.49,0,1,0-3.5-3.49A3.49,3.49,0,0,0,168.85,228.23Zm18.63,37.27A3.5,3.5,0,1,0,184,262,3.5,3.5,0,0,0,187.48,265.5Zm37.26,18.63a3.5,3.5,0,1,0-3.49-3.5A3.5,3.5,0,0,0,224.74,284.13Zm0-18.63a3.5,3.5,0,1,0-3.49-3.5A3.5,3.5,0,0,0,224.74,265.5ZM206.11,191a3.5,3.5,0,1,0-3.49-3.49A3.49,3.49,0,0,0,206.11,191Zm18.63,0a3.5,3.5,0,1,0-3.49-3.49A3.49,3.49,0,0,0,224.74,191Zm18.63,111.79a3.5,3.5,0,1,0-3.49-3.49A3.5,3.5,0,0,0,243.37,302.76Zm0,18.63a3.5,3.5,0,1,0-3.49-3.49A3.5,3.5,0,0,0,243.37,321.39ZM262,340a3.5,3.5,0,1,0,0-7h0a3.5,3.5,0,0,0,0,7Zm18.63-167.68a3.5,3.5,0,1,0-3.49-3.49A3.5,3.5,0,0,0,280.63,172.34Zm0,37.26a3.49,3.49,0,1,0-3.49-3.49A3.5,3.5,0,0,0,280.63,209.6Zm18.64-37.26a3.5,3.5,0,1,0-3.5-3.49A3.49,3.49,0,0,0,299.27,172.34Zm18.63-18.63a3.5,3.5,0,1,0-3.5-3.49A3.49,3.49,0,0,0,317.9,153.71Zm-111.79,0a3.5,3.5,0,1,0-3.49-3.49A3.49,3.49,0,0,0,206.11,153.71Zm0,18.63a3.5,3.5,0,1,0-3.49-3.49A3.49,3.49,0,0,0,206.11,172.34Zm18.63-37.26a3.5,3.5,0,1,0-3.49-3.5A3.5,3.5,0,0,0,224.74,135.08Zm111.79,0a3.5,3.5,0,1,0-3.5-3.5A3.5,3.5,0,0,0,336.53,135.08ZM317.9,60.55a3.49,3.49,0,1,0-3.5-3.49A3.49,3.49,0,0,0,317.9,60.55Zm18.63-18.63a3.5,3.5,0,1,0-3.5-3.49A3.49,3.49,0,0,0,336.53,41.92Zm-37.26,0a3.5,3.5,0,1,0-3.5-3.49A3.49,3.49,0,0,0,299.27,41.92Zm0-18.63a3.5,3.5,0,1,0-3.5-3.49A3.49,3.49,0,0,0,299.27,23.29Zm-18.64,0a3.5,3.5,0,1,0-3.49-3.49A3.5,3.5,0,0,0,280.63,23.29Zm-18.63,0a3.5,3.5,0,1,0,0-7h0a3.5,3.5,0,0,0,0,7Zm-18.63,0a3.5,3.5,0,1,0-3.49-3.49A3.5,3.5,0,0,0,243.37,23.29ZM57.06,41.92a3.5,3.5,0,1,0-3.49-3.49A3.49,3.49,0,0,0,57.06,41.92Zm-37.26,0a3.5,3.5,0,1,0-3.5-3.49A3.49,3.49,0,0,0,19.8,41.92ZM57.06,60.55a3.49,3.49,0,1,0-3.49-3.49A3.49,3.49,0,0,0,57.06,60.55ZM38.43,79.18a3.49,3.49,0,1,0-3.5-3.49A3.49,3.49,0,0,0,38.43,79.18ZM57.06,23.29a3.5,3.5,0,1,0-3.49-3.49A3.49,3.49,0,0,0,57.06,23.29Zm0,279.47a3.5,3.5,0,1,0-3.49-3.49A3.49,3.49,0,0,0,57.06,302.76ZM75.69,340a3.5,3.5,0,1,0-3.49-3.49A3.49,3.49,0,0,0,75.69,340ZM57.06,265.5a3.5,3.5,0,1,0-3.49-3.5A3.5,3.5,0,0,0,57.06,265.5Zm0,18.63a3.5,3.5,0,1,0-3.49-3.5A3.5,3.5,0,0,0,57.06,284.13ZM38.43,246.87a3.5,3.5,0,1,0-3.5-3.5A3.5,3.5,0,0,0,38.43,246.87ZM131.58,41.92a3.5,3.5,0,1,0-3.49-3.49A3.5,3.5,0,0,0,131.58,41.92Zm18.64,0a3.5,3.5,0,1,0-3.5-3.49A3.49,3.49,0,0,0,150.22,41.92ZM131.58,23.29a3.5,3.5,0,1,0-3.49-3.49A3.5,3.5,0,0,0,131.58,23.29Zm37.27,55.89a3.49,3.49,0,1,0-3.5-3.49A3.49,3.49,0,0,0,168.85,79.18Zm18.63-18.63a3.49,3.49,0,1,0-3.5-3.49A3.49,3.49,0,0,0,187.48,60.55Zm0-37.26A3.5,3.5,0,1,0,184,19.8,3.49,3.49,0,0,0,187.48,23.29ZM317.9,228.23a3.49,3.49,0,1,0-3.5-3.49A3.49,3.49,0,0,0,317.9,228.23Zm-18.63,18.64a3.5,3.5,0,1,0-3.5-3.5A3.5,3.5,0,0,0,299.27,246.87Zm0,18.63a3.5,3.5,0,1,0-3.5-3.5A3.5,3.5,0,0,0,299.27,265.5Zm0,18.63a3.5,3.5,0,1,0-3.5-3.5A3.5,3.5,0,0,0,299.27,284.13ZM19.8,209.6a3.49,3.49,0,1,0-3.5-3.49A3.49,3.49,0,0,0,19.8,209.6Zm0,18.63a3.49,3.49,0,1,0-3.5-3.49A3.49,3.49,0,0,0,19.8,228.23Zm0-37.26a3.5,3.5,0,1,0-3.5-3.49A3.49,3.49,0,0,0,19.8,191Zm18.63,0a3.5,3.5,0,1,0-3.5-3.49A3.49,3.49,0,0,0,38.43,191ZM19.8,97.81a3.49,3.49,0,1,0-3.5-3.49A3.49,3.49,0,0,0,19.8,97.81Zm37.26,74.53a3.5,3.5,0,1,0-3.49-3.49A3.49,3.49,0,0,0,57.06,172.34Zm18.63-18.63a3.5,3.5,0,1,0-3.49-3.49A3.49,3.49,0,0,0,75.69,153.71Z"/></g></g></g></svg>