<svg width="76" height="16" viewBox="0 0 76 16" fill="none" xmlns="http://www.w3.org/2000/svg">
<path d="M9.26685 1.06928H13.1518C16.811 1.06928 19.0089 2.87513 19.0089 5.83339C19.0089 8.66097 16.9179 10.8114 13.2825 10.8114H11.8806V15.0052H9.26685V1.06928ZM16.3714 5.92844C16.3714 4.32456 15.1715 3.45728 13.4013 3.45728H11.8806V8.43524H13.4132C15.1715 8.43524 16.3714 7.52043 16.3714 5.92844ZM20.8029 1.56827C20.8029 0.760387 21.4444 0.130717 22.2642 0.130717C23.0721 0.130717 23.7017 0.772268 23.7017 1.56827C23.7017 2.37614 23.0602 2.99393 22.2642 2.99393C21.4325 2.99393 20.8029 2.37614 20.8029 1.56827ZM20.9692 4.71662H23.5473V15.0052H20.9692V4.71662ZM29.345 4.71662H32.1488V6.867H29.345V11.0133C29.345 12.3915 30.2242 12.938 31.4241 12.938C31.7092 12.938 32.0181 12.9023 32.3389 12.8429V15.0527C32.0063 15.124 31.531 15.2072 30.8657 15.2072C28.2995 15.2072 26.8501 13.6746 26.8501 11.144V6.867H25.3531V4.71662H26.862V2.31674H29.345V4.71662ZM39.2178 12.9023C40.0375 12.9023 40.9998 12.736 41.8552 12.1182V14.53C41.0355 14.9814 39.99 15.2547 38.8851 15.2547C35.8556 15.2547 33.5507 12.9736 33.5507 9.83714C33.5507 6.73632 35.8674 4.46713 38.8851 4.46713C39.9306 4.46713 40.9998 4.6691 41.8552 5.17996V7.61548C40.9998 7.03333 40.1682 6.8076 39.194 6.8076C37.5664 6.8076 36.1407 7.97189 36.1407 9.86091C36.1526 11.7618 37.5664 12.9023 39.2178 12.9023ZM46.6788 5.77399H46.7144C47.2965 5.00175 48.3183 4.46713 49.5182 4.46713C51.7399 4.46713 53.1655 5.76211 53.1655 8.1501V14.9933H50.5875V8.89858C50.5875 7.47291 49.9697 6.8076 48.7341 6.8076C47.5936 6.8076 46.6788 7.48479 46.6788 8.79165V15.0052H44.1007V3.05176e-05H46.6788V5.77399ZM55.4347 13.5914C55.4347 12.736 56.0882 12.0826 56.9436 12.0826C57.7871 12.0826 58.4524 12.736 58.4524 13.5914C58.4524 14.4349 57.7752 15.1002 56.9436 15.1002C56.0882 15.1121 55.4347 14.4349 55.4347 13.5914ZM60.0325 9.87279C60.0325 6.60563 62.2898 4.46713 64.6303 4.46713C66.1391 4.46713 67.3985 5.2156 68.1113 6.39178L68.3727 4.70474H70.5468V14.9933H68.3727L68.1113 13.3063C67.3985 14.4824 66.151 15.2547 64.6303 15.2547C62.2898 15.2547 60.0325 13.1043 60.0325 9.87279ZM67.9925 9.84902C67.9925 8.05506 66.852 6.79572 65.3431 6.79572C63.7868 6.79572 62.6344 8.06694 62.6344 9.84902C62.6344 11.6311 63.7987 12.9023 65.3431 12.9023C66.852 12.9023 67.9925 11.6549 67.9925 9.84902ZM73.1011 1.56827C73.1011 0.760387 73.7427 0.130717 74.5624 0.130717C75.3703 0.130717 76 0.772268 76 1.56827C76 2.37614 75.3584 2.99393 74.5624 2.99393C73.7308 2.99393 73.1011 2.37614 73.1011 1.56827ZM73.2675 4.71662H75.8456V15.0052H73.2675V4.71662Z" fill="black"/>
<path opacity="0.5" d="M7.12837 4.75226H4.51465V14.9696H7.12837V4.75226Z" fill="black"/>
<path opacity="0.25" d="M2.61373 9.14804H0V14.9695H2.61373V9.14804Z" fill="black"/>
</svg>
