<svg xmlns="http://www.w3.org/2000/svg" viewBox="0 0 110.12 110.12"><defs><style>.cls-1{fill:#e1e3e6;}</style></defs><title>plus-gray_1</title><g id="Layer_2" data-name="Layer 2"><g id="Layer_1-2" data-name="Layer 1"><path class="cls-1" d="M2.49,47h42A2.5,2.5,0,0,0,47,44.53v-42A2.49,2.49,0,0,1,49.51,0h11.1A2.49,2.49,0,0,1,63.1,2.49v42A2.5,2.5,0,0,0,65.59,47h42a2.49,2.49,0,0,1,2.49,2.49v11.1a2.49,2.49,0,0,1-2.49,2.49h-42a2.5,2.5,0,0,0-2.49,2.49v42a2.49,2.49,0,0,1-2.49,2.49H49.51A2.49,2.49,0,0,1,47,107.63v-42a2.5,2.5,0,0,0-2.49-2.49h-42A2.49,2.49,0,0,1,0,60.61V49.51A2.49,2.49,0,0,1,2.49,47Z"/></g></g></svg>