<svg xmlns="http://www.w3.org/2000/svg" viewBox="0 0 161.28 109.44"><defs><style>.cls-1{fill:#eaecef;}</style></defs><title>record_1</title><g id="Layer_2" data-name="Layer 2"><g id="Layer_1-2" data-name="Layer 1"><path class="cls-1" d="M97.92,109.44H17.28A17.28,17.28,0,0,1,0,92.16V17.28A17.28,17.28,0,0,1,17.28,0H97.92A17.28,17.28,0,0,1,115.2,17.28V92.16A17.28,17.28,0,0,1,97.92,109.44ZM17.28,11.52a5.76,5.76,0,0,0-5.76,5.76V92.16a5.76,5.76,0,0,0,5.76,5.76H97.92a5.76,5.76,0,0,0,5.76-5.76V17.28a5.76,5.76,0,0,0-5.76-5.76Z"/><path class="cls-1" d="M155.52,97.92a5.92,5.92,0,0,1-2.58-.6l-46.07-23a5.77,5.77,0,0,1-3.19-5.16V40.32a5.77,5.77,0,0,1,3.19-5.16l46.07-23a5.77,5.77,0,0,1,8.34,5.16V92.16A5.76,5.76,0,0,1,155.52,97.92ZM115.2,65.56l34.56,17.28V26.6L115.2,43.88Z"/><circle class="cls-1" cx="29.91" cy="30.9" r="8.32"/></g></g></svg>