<svg xmlns="http://www.w3.org/2000/svg" viewBox="0 0 155.59 115"><defs><style>.cls-1{fill:#eaecef;}</style></defs><title>upload</title><g id="Layer_2" data-name="Layer 2"><g id="Layer_1-2" data-name="Layer 1"><path class="cls-1" d="M77.8,0A46.89,46.89,0,0,0,31.5,38.11,38.79,38.79,0,0,0,38.9,115h82.87a33.73,33.73,0,0,0,3.06-67.33A46.84,46.84,0,0,0,77.8,0Zm0,10.15A36.83,36.83,0,0,1,104.06,21a37.21,37.21,0,0,1,10.68,30.81,5.08,5.08,0,0,0,4.4,5.67,4.3,4.3,0,0,0,.62,0h2a23.68,23.68,0,0,1,0,47.36H38.9a28.76,28.76,0,0,1-2.64-57.4A5.08,5.08,0,0,0,40.8,43a37.14,37.14,0,0,1,37-32.87Zm0,30.44a4.53,4.53,0,0,0-3.44,1.32L55.76,58.82A5.12,5.12,0,0,0,55.44,66a5.31,5.31,0,0,0,7.19.32l10.09-9.2v32.5a5.08,5.08,0,1,0,10.15,0V57.13L93,66.33a5.43,5.43,0,0,0,7.19-.32,5.1,5.1,0,0,0-.32-7.19L81.23,41.91A4.26,4.26,0,0,0,77.8,40.59Z"/></g></g></svg>